<svg width="100" height="461" viewBox="0 0 100 461" fill="none" xmlns="http://www.w3.org/2000/svg">
<path d="M30.1619 249.31L21.4338 253.058L29.518 256.514L38.89 253.058L30.1619 249.31ZM17.0406 253.996L16.7482 270.865L29.518 276.489V258.974L17.0406 253.996V253.996ZM43.2832 253.996L31.7429 258.39V274.908L43.2832 270.221V253.996V253.996ZM57.0484 201.511L48.2621 205.26L56.4045 208.717L65.7765 205.26L57.0484 201.511ZM44.8642 206.49V223.36L55.7598 226.523L56.1112 211.176L44.8642 206.49ZM69.2325 207.427L58.9226 211.82V228.398L69.2325 223.711V207.427ZM15.7812 225.255L7.05382 229.004L15.1373 232.46L24.5093 229.004L15.7812 225.255V225.255ZM2.6599 229.941L2.36743 246.811L15.1373 252.434V234.92L2.6599 229.941V229.941ZM28.9017 229.941L17.363 234.334V250.852L28.9017 246.166V229.941ZM43.898 224.63L35.1699 228.379L43.2533 231.835L52.6254 228.379L43.898 224.63ZM30.7775 229.316L30.4842 246.187L43.2541 251.811V234.295L30.7775 229.316V229.316ZM57.0193 229.316L45.4798 233.71V250.229L57.0193 245.542V229.316ZM84.5113 201.511L75.784 205.26L83.8682 208.717L93.2402 205.26L84.5113 201.511ZM71.3908 206.198L71.0984 223.067L83.8682 228.69V211.176L71.3908 206.198ZM97.6326 206.198L86.0939 210.591V227.109L97.6326 222.424V206.198V206.198Z" fill="white"/>
<path d="M96.55 308.889C93.2578 306.975 88.8937 306.745 85.2187 307.817C84.7594 303.836 82.1562 300.391 79.0937 297.941L77.8687 296.945L76.7969 298.17C74.7297 300.544 74.1172 304.525 74.4234 307.588C74.6531 309.808 75.3422 312.105 76.7203 313.942C75.6484 314.555 74.5 315.397 73.4281 315.78C71.2844 316.545 68.9109 317.311 66.614 317.311H61.4844V306.516H51.5312V287.375H40.0469V296.562H20.9062V306.516H10.9531V317.234H2.3781L2.22497 318.383C1.84216 323.283 2.45466 328.03 4.52185 332.547L5.36404 334.231L5.4406 334.384C11.489 344.644 22.0547 348.931 33.6156 348.931C55.9719 348.931 74.4234 338.902 82.8453 317.847C88.5109 318.153 94.3297 316.469 97.0859 311.033L97.775 309.655L96.55 308.889V308.889ZM22.4375 298.859H30.0937V307.281H22.4375V298.859ZM32.4672 332.7C32.4672 334.002 31.3953 335.073 30.0937 335.073C28.7922 335.073 27.7203 334.002 27.7203 332.7C27.7203 331.398 28.7922 330.327 30.0937 330.327C31.3953 330.403 32.4672 331.398 32.4672 332.7ZM22.4375 308.812H30.0937V317.234H22.4375V308.812ZM12.4844 308.812H20.9062V317.234H12.4844V308.812ZM33.6922 347.247C21.5953 347.17 15.0875 343.113 9.7281 337.753C11.3359 337.83 12.8672 337.906 14.2453 337.906C15.4703 337.906 16.6953 337.906 17.8437 337.83C20.8297 337.677 23.4328 337.294 25.5765 336.681C27.3375 340.739 30.5531 344.491 36.2953 347.247H33.6922ZM40.0469 317.234H31.625V308.812H40.0469V317.234ZM40.0469 307.281H31.625V298.859H40.0469V307.281ZM50 317.234H41.5781V308.812H50V317.234ZM50 307.281H41.5781V298.859H50V307.281ZM50 297.328H41.5781V288.906H50V297.328ZM59.9531 317.234H51.5312V308.812H59.9531V317.234ZM30.7062 331.169C30.5531 331.092 30.3234 331.016 30.0937 331.016C29.175 331.016 28.4094 331.781 28.4094 332.7C28.4094 333.619 29.175 334.384 30.0937 334.384C31.0125 334.384 31.7781 333.619 31.7781 332.7C31.7781 332.47 31.7015 332.241 31.625 332.088C31.4719 332.317 31.3187 332.47 31.0125 332.47C30.6297 332.47 30.3234 332.164 30.3234 331.781C30.4 331.475 30.5531 331.245 30.7062 331.169V331.169Z" fill="white"/>
<path d="M1.5625 0.78125V98.4375H99.2188V0.78125H1.5625ZM53.218 83.9945C51.7766 86.9234 49.025 88.8477 45.8367 89.7766C40.9375 90.9016 36.2516 90.2602 32.7656 88.168C30.4328 86.7367 28.6109 84.5336 27.3742 81.9953L34.8117 77.4406C34.8766 77.468 35.0719 77.8211 35.3328 78.2773C36.2812 79.8664 37.0992 80.9914 38.707 81.7812C40.2867 82.3203 43.7547 82.6648 45.0938 79.8852C45.9117 78.4711 45.6516 73.9258 45.6516 68.8969C45.6508 60.9945 45.6875 53.125 45.6875 45.3125H54.8352C54.8352 53.9062 54.882 62.0453 54.8352 70.4313C54.8547 75.5719 55.3008 80.1547 53.218 83.9945ZM91.1664 81.4102C87.9867 92.2867 70.2586 92.6398 63.1742 85.4539C61.6773 83.7625 60.7391 82.8789 59.8461 80.9266C63.6109 78.7609 63.6109 78.7609 67.2742 76.6414C69.2641 79.7 71.1039 81.382 74.4141 82.0703C78.9047 82.6188 83.4227 81.0758 82.4094 76.3062C81.368 72.4109 73.2141 71.4633 67.6648 67.2977C62.0312 63.5141 60.7109 54.3203 65.3406 49.0672C66.8836 47.1242 69.5148 45.6742 72.2758 44.9773L75.157 44.6047C80.6891 44.493 84.1469 45.9539 86.6852 48.7883C87.3914 49.5039 87.968 50.2758 89.0461 51.9484C86.0992 53.8266 86.1086 53.8086 81.8875 56.5414C80.9859 54.5992 79.4898 53.3805 77.9086 52.8508C75.4539 52.107 72.3586 52.9156 71.7164 55.5094C71.4938 56.3086 71.5398 57.0523 71.8938 58.3727C72.8883 60.6406 76.2258 61.6266 79.2195 63.0023C87.8375 66.4977 90.7477 70.2453 91.4633 74.7063C92.1523 78.5469 91.2969 81.0383 91.1664 81.4102Z" fill="white"/>
<path d="M38.7683 410.469H61.0932C67.3077 410.469 72.2031 405.211 72.2031 398.97V377.687C72.2031 371.629 67.1255 367.079 61.0595 366.068C57.2206 365.429 53.2539 365.138 49.4319 365.156C45.6115 365.174 42.0727 365.499 38.8625 366.068C29.4032 367.738 27.7969 371.237 27.7969 377.687V385.969H50V389.031H19.2035C12.708 389.031 7.01937 392.942 5.24082 400.371C3.18818 408.885 3.09707 414.09 5.24082 422.98C6.8295 429.596 10.6232 434.203 17.1195 434.203H24.7344V424.213C24.7344 416.835 31.1871 410.469 38.7683 410.469V410.469ZM37.3611 380.525C35.0443 380.525 33.167 378.627 33.167 376.28C33.167 373.922 35.0435 372.007 37.3611 372.007C39.6694 372.007 41.5559 373.922 41.5559 376.28C41.5552 378.627 39.6687 380.525 37.3611 380.525ZM94.6214 400.371C93.0151 393.903 89.9488 389.031 83.4441 389.031H75.2656V398.97C75.2656 406.664 68.5327 412.766 61.0932 412.766H38.7683C32.6525 412.766 27.7969 418.375 27.7969 424.5V445.784C27.7969 451.84 32.961 455.403 38.8694 457.141C45.9453 459.222 52.646 459.597 61.1115 457.141C66.7381 455.511 72.2031 452.233 72.2031 445.784V437.266H50V434.203H83.4441C89.9396 434.203 92.3613 429.781 94.6214 422.979C96.9543 415.978 96.854 409.352 94.6214 400.371V400.371ZM62.4996 442.944C64.8172 442.944 66.6945 444.842 66.6945 447.191C66.6945 449.546 64.8179 451.463 62.4996 451.463C60.1913 451.463 58.3055 449.547 58.3055 447.191C58.3055 444.842 60.1913 442.944 62.4996 442.944Z" fill="white"/>
<path d="M50 159.728C54.8204 159.728 58.7281 155.821 58.7281 151C58.7281 146.18 54.8204 142.272 50 142.272C45.1796 142.272 41.2719 146.18 41.2719 151C41.2719 155.821 45.1796 159.728 50 159.728Z" fill="white"/>
<path d="M83.1516 136.606C81.4672 135.994 79.7063 135.381 77.8688 134.845C78.3281 133.008 78.711 131.17 79.0172 129.409C80.625 119.303 78.8641 112.183 73.9641 109.427C72.5094 108.584 70.9016 108.202 69.0641 108.202C63.7047 108.202 56.8906 112.183 50 118.844C43.1094 112.183 36.2953 108.202 30.936 108.202C29.0985 108.202 27.4906 108.584 26.036 109.427C21.136 112.259 19.375 119.38 20.9828 129.409C21.2891 131.17 21.6719 133.008 22.1313 134.845C20.2938 135.381 18.5328 135.917 16.8485 136.606C7.27815 140.281 2.0719 145.334 2.0719 151C2.0719 156.666 7.35471 161.719 16.8485 165.394C18.5328 166.006 20.2938 166.619 22.1313 167.155C21.6719 168.992 21.2891 170.83 20.9828 172.591C19.375 182.697 21.136 189.817 26.036 192.574C27.4906 193.416 29.0985 193.799 30.936 193.799C36.3719 193.799 43.186 189.817 50 183.156C56.8906 189.817 63.7047 193.799 69.0641 193.799C70.9016 193.799 72.5094 193.416 73.9641 192.574C78.8641 189.741 80.625 182.62 79.0172 172.591C78.711 170.83 78.3281 168.992 77.8688 167.155C79.7063 166.619 81.4672 166.083 83.1516 165.394C92.7219 161.719 97.9281 156.666 97.9281 151C97.9281 145.334 92.7219 140.281 83.1516 136.606ZM71.8203 113.255C74.9594 115.092 76.0313 120.758 74.7297 128.797C74.5 130.405 74.1172 132.089 73.6578 133.85C69.6766 132.931 65.4656 132.319 61.025 131.936C58.4219 128.261 55.7422 124.969 53.0625 121.983C58.7281 116.394 64.4703 112.566 69.1406 112.566C70.136 112.566 71.0547 112.795 71.8203 113.255V113.255ZM63.2453 158.656C61.8672 161.106 60.2594 163.556 58.575 166.006C55.7422 166.236 52.9094 166.313 50 166.313C47.0141 166.313 44.1813 166.236 41.425 166.006C39.7406 163.556 38.2094 161.106 36.8313 158.656C35.3766 156.13 33.9985 153.527 32.7735 151C33.9985 148.474 35.3766 145.87 36.8313 143.344C38.2094 140.894 39.8172 138.444 41.5016 135.994C44.3344 135.764 47.1672 135.688 50.0766 135.688C53.0625 135.688 55.8953 135.764 58.6516 135.994C60.336 138.444 61.8672 140.894 63.2453 143.344C64.7 145.87 66.0781 148.474 67.3031 151C66.0016 153.527 64.7 156.053 63.2453 158.656ZM69.6 156.13C70.7485 158.809 71.6672 161.413 72.5094 164.016C69.9063 164.628 67.15 165.088 64.2406 165.47C65.1594 164.016 66.1547 162.484 66.9969 160.877C67.9156 159.269 68.7578 157.661 69.6 156.13ZM50 176.878C48.1625 174.888 46.4016 172.744 44.7172 170.524C46.4781 170.6 48.2391 170.677 50 170.677C51.761 170.677 53.5219 170.6 55.2828 170.524C53.5985 172.744 51.8375 174.888 50 176.878ZM35.7594 165.394C32.85 165.011 30.0938 164.552 27.4906 163.939C28.3328 161.413 29.2516 158.733 30.4 156.053C31.2422 157.584 32.0844 159.192 33.0031 160.724C33.9219 162.408 34.8406 163.863 35.7594 165.394V165.394ZM30.4 145.87C29.2516 143.191 28.3328 140.588 27.4906 137.984C30.0938 137.372 32.85 136.913 35.7594 136.53C34.8406 137.984 33.8453 139.516 33.0031 141.124C32.0844 142.731 31.2422 144.339 30.4 145.87V145.87ZM50 125.122C51.8375 127.113 53.5985 129.256 55.2828 131.477C53.5219 131.4 51.761 131.324 50 131.324C48.2391 131.324 46.4781 131.4 44.7172 131.477C46.4016 129.256 48.1625 127.113 50 125.122V125.122ZM66.9969 141.2L64.2406 136.606C67.15 136.989 69.9063 137.449 72.5094 138.061C71.6672 140.588 70.7485 143.267 69.6 145.947C68.7578 144.339 67.9156 142.731 66.9969 141.2V141.2ZM25.2703 128.797C23.9688 120.758 25.0406 115.092 28.1797 113.255C28.9453 112.795 29.8641 112.566 30.8594 112.566C35.4531 112.566 41.1953 116.317 46.9375 121.983C44.2578 124.892 41.5781 128.261 38.975 131.936C34.5344 132.319 30.3235 133.008 26.3422 133.85C25.8828 132.089 25.5766 130.405 25.2703 128.797ZM6.3594 151C6.3594 147.402 10.7235 143.574 18.3797 140.741C19.911 140.128 21.5953 139.592 23.2797 139.133C24.5047 142.961 26.036 147.019 27.8735 151.077C26.036 155.134 24.4281 159.116 23.2797 162.944C12.7141 159.881 6.3594 155.288 6.3594 151V151ZM28.1797 188.745C25.0406 186.908 23.9688 181.242 25.2703 173.203C25.5 171.595 25.8828 169.911 26.3422 168.15C30.3235 169.069 34.5344 169.681 38.975 170.064C41.5781 173.739 44.2578 177.031 46.9375 180.017C41.2719 185.606 35.5297 189.434 30.8594 189.434C29.8641 189.434 28.9453 189.205 28.1797 188.745ZM74.7297 173.203C76.0313 181.242 74.9594 186.908 71.8203 188.745C71.0547 189.205 70.136 189.434 69.1406 189.434C64.5469 189.434 58.8047 185.683 53.0625 180.017C55.7422 177.108 58.4219 173.739 61.025 170.064C65.4656 169.681 69.6766 168.992 73.6578 168.15C74.1172 169.911 74.4235 171.595 74.7297 173.203V173.203ZM81.6203 161.259C80.0891 161.872 78.4047 162.408 76.7203 162.867C75.4953 159.039 73.9641 154.981 72.1266 150.924C73.9641 146.866 75.5719 142.884 76.7203 139.056C87.286 142.119 93.6406 146.713 93.6406 151C93.6406 154.599 89.2 158.427 81.6203 161.259V161.259Z" fill="white"/>
</svg>
