<svg xmlns="http://www.w3.org/2000/svg" xmlns:xlink="http://www.w3.org/1999/xlink" viewBox="0 0 537.5 551.4">
  <defs>
    <circle id="a" cx="256" cy="256" r="256"/>
  </defs>
  <clipPath id="b">
    <use xlink:href="#a" overflow="visible"/>
  </clipPath>
  <g clip-path="url(#b)">
    <circle cx="256" cy="256" r="256" fill="#53777A"/>
  </g>
  <path fill="#C02942" d="M238.4 161h299v236h-299z" clip-path="url(#b)"/>
  <path fill="#6E302D" d="M292.6 361l-.2 36.6-162.6-1c-39 0-71-8.5-71-18.5 0-9.5 32-17.5 71.2-17.3l162.6.7z" clip-path="url(#b)"/>
  <path fill="#A44844" d="M292.6 359l-.2 36.4-162.6-1c-39-.2-71-8.5-71-18.5s32-18 71.2-18l162.6 1z" clip-path="url(#b)"/>
  <g clip-path="url(#b)">
    <path fill="#6E302D" d="M231.3 161c-25.4 4-40 31.4-40 55.8v141.8h103.3v-136c0-31.7-28-67-63.3-61.6z"/>
  </g>
  <path fill="#7B3633" d="M189.3 358.6l103.3 35.6v-35.6" clip-path="url(#b)"/>
  <g fill="#FFF" clip-path="url(#b)">
    <path d="M350.6 254.8H364l7.3 20 7.3-20H392v52.4h-12v-19.6c0-5 .3-10 .7-15h-1c-.4 2.4-1.5 6-3 10.3l-5.4 15-5.3-15c-1.6-4.7-2.6-8-3-10.7h-1c.4 4.7.6 9.8.6 15V307h-12v-52.3zm59 0h12l14 52.4h-13.3l-2-10.4h-10l-1.8 10.4H396l13.7-52.4zm6 14.3l-3.5 18.7h7l-3.2-18.3zm24-14H452v52.4h-12.4V255zm20 0h12.2v41.7h16.8v10.7h-29V255z"/>
  </g>
  <g clip-path="url(#b)">
    <path fill="#FFF" d="M325.3 91h8v69.5h-8z"/>
  </g>
  <path fill="#C02942" d="M322 97.7l-54 17.7 54 17.6" clip-path="url(#b)"/>
  <g clip-path="url(#b)">
    <path fill="#EAEBE1" d="M123 235.4h206v129H123z"/>
    <path fill="#D1D1CF" d="M229.2 323.4l-105-87 204.8-1"/>
    <path fill="#EAEBE1" d="M229.2 315L123 235.4h206"/>
    <path fill="#53777A" d="M151 244.4h-24l3.3-8.5h24"/>
    <path fill="#C02942" d="M193.3 244.4h-24l3.3-8.5h24"/>
    <path fill="#53777A" d="M235.6 244.4h-24l3.3-8.5h24m81 8.2h-24l3.3-8.5h24"/>
    <path fill="#C02942" d="M278 244.4h-24l3.2-8.5h24M132 326v24l-8.3-3v-24.2"/>
    <path fill="#53777A" d="M132 290v24l-8.3-3.3v-24"/>
    <path fill="#C02942" d="M132 253.7v24l-8.3-3.2v-24m197 71.5v24l8.5-3.2v-24"/>
    <path fill="#53777A" d="M320.8 286v24l8.4-3.4v-24"/>
    <path fill="#C02942" d="M320.8 249.7v24l8.4-3.3v-24"/>
    <path fill="#53777A" d="M151 364h-24l3.3-8.5h24"/>
    <path fill="#C02942" d="M193.3 364h-24l3.3-8.5h24"/>
    <path fill="#53777A" d="M235.6 364h-24l3.3-8.5h24m81 8.5h-24l3.2-8.5h24"/>
    <path fill="#C02942" d="M278 364h-24l3.2-8.5h24M292.6 230h49v149h-49z"/>
  </g>
  <path fill="#EAEBE1" d="M335.4 397h61.3v154.5h-61.3z" clip-path="url(#b)"/>
  <path fill="#D1D1CF" d="M372.4 397h24.8v154.5h-24.8z" clip-path="url(#b)"/>
  <g clip-path="url(#b)">
    <path fill="#FFF" d="M291.6 397l204-236H245.3c28.3 4.2 49.3 34.2 49.3 61.7v136" opacity=".1"/>
  </g>
</svg>
